<?xml version="1.0" encoding="utf-8"?>
<!-- Generator: Adobe Illustrator 24.3.0, SVG Export Plug-In . SVG Version: 6.00 Build 0)  -->
<svg version="1.1" id="Layer_1" xmlns="http://www.w3.org/2000/svg" xmlns:xlink="http://www.w3.org/1999/xlink" x="0px" y="0px"
	 viewBox="0 0 617 149.7" style="enable-background:new 0 0 617 149.7;" xml:space="preserve">
<style type="text/css">
	.st0{fill:#FFC117;}
	.st1{fill:#221F1F;}
</style>
<polygon class="st0" points="130,110.7 130,123.6 99.8,139.6 9.1,123.7 9.1,111.1 99.8,126.1 "/>
<polygon class="st0" points="9.1,98 100.7,113.1 130,98.5 130,83.6 100.7,97.5 9.1,83.4 "/>
<polygon class="st0" points="9.1,68.7 99.8,83.6 130,68.5 130,54.7 99.8,69.1 9.1,55.1 "/>
<polygon class="st0" points="130,25.4 130,39.2 99.8,54.3 9.1,40.4 9.1,25.8 99.8,39.8 "/>
<g>
	<path class="st1" d="M224.1,84.6h14.6v29.6c-8.2,9-19.9,13.5-35.1,13.5c-12.8,0-23.5-4.2-32.2-12.6c-8.6-8.4-12.9-19.1-12.9-32
		c0-12.9,4.4-23.6,13.2-32.2c8.8-8.6,19.4-12.9,31.9-12.9c12.5,0,22.8,3.6,31.1,10.9L227,60.1c-3.4-2.9-6.8-4.9-10.2-6
		c-3.4-1.1-7.4-1.7-12-1.7c-8.8,0-16.1,2.8-22.1,8.5c-5.9,5.7-8.9,13.1-8.9,22.3c0,9.2,2.9,16.6,8.7,22.2c5.8,5.6,12.8,8.4,21,8.4
		c8.2,0,15.1-1.8,20.6-5.3V84.6z"/>
	<path class="st1" d="M269.4,107l-8.7,19.7h-15.6l38.2-86.6h15.6l38.2,86.6h-15.6l-8.7-19.7H269.4z M306.8,93.5L291,57.9l-15.7,35.7
		H306.8z"/>
	<path class="st1" d="M388.6,113.5c5,0,9.4-0.8,13-2.5c3.6-1.7,7.4-4.4,11.4-8.1l9.4,9.7c-9.2,10.2-20.3,15.2-33.4,15.2
		c-13.1,0-24-4.2-32.6-12.6c-8.6-8.4-12.9-19.1-12.9-32c0-12.9,4.4-23.6,13.2-32.2C365.5,42.3,376.6,38,390,38
		c13.4,0,24.6,5,33.6,14.9l-9.3,10.2c-4.1-4-8-6.7-11.7-8.3c-3.7-1.6-8-2.4-12.9-2.4c-8.8,0-16.1,2.8-22.1,8.5
		c-5.9,5.7-8.9,12.9-8.9,21.7s3,16.2,8.9,22.1C373.5,110.5,380.5,113.5,388.6,113.5z"/>
	<path class="st1" d="M452.5,107l-8.7,19.7h-15.6l38.2-86.6H482l38.2,86.6h-15.6l-8.7-19.7H452.5z M489.9,93.5l-15.7-35.7
		l-15.7,35.7H489.9z"/>
	<path class="st1" d="M590.7,47.7c6,5,9,12.8,9,23.3c0,10.5-3.1,18.2-9.2,23c-6.2,4.9-15.6,7.3-28.3,7.3h-15.4v25.4h-14.6V40.1h29.7
		C575.1,40.1,584.6,42.7,590.7,47.7z M580.3,83.4c2.9-3.1,4.4-7.6,4.4-13.6c0-6-1.9-10.2-5.6-12.7c-3.7-2.5-9.5-3.7-17.5-3.7h-14.9
		v34.7h17C571.9,88.1,577.4,86.5,580.3,83.4z"/>
</g>
</svg>
