<?xml version="1.0" encoding="utf-8"?>
<!-- Generator: Adobe Illustrator 24.2.1, SVG Export Plug-In . SVG Version: 6.00 Build 0)  -->
<svg version="1.1" id="Layer_1" xmlns="http://www.w3.org/2000/svg" xmlns:xlink="http://www.w3.org/1999/xlink" x="0px" y="0px"
	 viewBox="0 0 528.3 149.7" style="enable-background:new 0 0 528.3 149.7;" xml:space="preserve">
<style type="text/css">
	.st0{fill:#FFC117;}
	.st1{fill:#221F1F;}
</style>
<polygon class="st0" points="131.2,107.6 131.2,120.4 100.9,136.5 10.3,120.6 10.3,107.9 100.9,122.9 "/>
<polygon class="st0" points="10.3,94.8 101.9,109.9 131.2,95.3 131.2,80.4 101.9,94.4 10.3,80.2 "/>
<polygon class="st0" points="10.3,65.5 100.9,80.5 131.2,65.4 131.2,51.6 100.9,65.9 10.3,51.9 "/>
<polygon class="st0" points="131.2,22.3 131.2,36.1 100.9,51.2 10.3,37.2 10.3,22.6 100.9,36.6 "/>
<g>
	<path class="st1" d="M177.6,103.9l-8.7,19.7h-15.6L191.5,37h15.6l38.2,86.6h-15.6l-8.7-19.7H177.6z M215,90.4l-15.7-35.7
		l-15.7,35.7L215,90.4L215,90.4z"/>
	<path class="st1" d="M296.8,110.3c5,0,9.4-0.8,13-2.5c3.6-1.7,7.4-4.4,11.4-8.1l9.4,9.7c-9.2,10.2-20.3,15.2-33.4,15.2
		c-13.1,0-24-4.2-32.6-12.6c-8.6-8.4-12.9-19.1-12.9-32c0-12.9,4.4-23.6,13.2-32.2c8.8-8.6,19.9-12.9,33.3-12.9
		c13.4,0,24.6,5,33.6,14.9l-9.3,10.2c-4.1-4-8-6.7-11.7-8.3c-3.7-1.6-8-2.4-12.9-2.4c-8.8,0-16.1,2.8-22.1,8.5
		c-5.9,5.7-8.9,12.9-8.9,21.7c0,8.8,3,16.2,8.9,22.1C281.7,107.4,288.7,110.3,296.8,110.3z"/>
	<path class="st1" d="M360.8,103.9l-8.7,19.7h-15.6L374.6,37h15.6l38.2,86.6h-15.6l-8.7-19.7H360.8z M398.2,90.4l-15.7-35.7
		l-15.7,35.7H398.2z"/>
	<path class="st1" d="M498.9,44.5c6,5,9,12.8,9,23.3c0,10.5-3.1,18.2-9.2,23c-6.2,4.9-15.6,7.3-28.3,7.3h-15.4v25.4h-14.6V37h29.7
		C483.3,37,492.9,39.5,498.9,44.5z M488.6,80.3c2.9-3.1,4.4-7.6,4.4-13.6c0-6-1.9-10.2-5.6-12.7c-3.7-2.5-9.5-3.7-17.5-3.7h-14.9
		v34.7h17C480.1,84.9,485.6,83.4,488.6,80.3z"/>
</g>
</svg>
