<?xml version="1.0" encoding="utf-8"?>
<!-- Generator: Adobe Illustrator 24.2.1, SVG Export Plug-In . SVG Version: 6.00 Build 0)  -->
<svg version="1.1" id="Layer_1" xmlns="http://www.w3.org/2000/svg" xmlns:xlink="http://www.w3.org/1999/xlink" x="0px" y="0px"
	 viewBox="0 0 300 300" style="enable-background:new 0 0 300 300;" xml:space="preserve">
<style type="text/css">
	.st0{fill:#FEC118;}
</style>
<path class="st0" d="M291.2,104.2c3.4-1.2,5.7-4.5,5.7-8.1c0-3.6-2.3-6.9-5.7-8.1L152.9,39.2c-1.9-0.7-3.9-0.7-5.7,0L8.9,88
	c-3.4,1.2-5.7,4.5-5.7,8.1c0,3.6,2.3,6.9,5.7,8.1l54.8,19.5v56.1c0,9.3,9.7,17.1,28.7,23.3c16.6,5.4,37.1,8.4,57.7,8.4
	s41-3,57.7-8.4c19.1-6.2,28.7-14,28.7-23.3v-56.1l22.6-8v77.8c-10.1,3.6-17.3,13.2-17.3,24.4c0,11.3,7.2,20.9,17.3,24.4v32.9
	c0,4.8,3.9,8.6,8.6,8.6s8.6-3.9,8.6-8.6v-32.9c10.1-3.6,17.3-13.2,17.3-24.4c0-11.3-7.2-20.9-17.3-24.4v-83.9L291.2,104.2z
	 M267.7,226.5c-4.8,0-8.7-3.9-8.7-8.7s3.9-8.7,8.7-8.7s8.7,3.9,8.7,8.7S272.5,226.5,267.7,226.5z M150.1,56.5l112.5,39.7l-112.5,40
	l-112.5-40L150.1,56.5z M219.3,178.5c-1.6,1.7-7.6,5.6-20.9,9.4c-14.2,4.1-31.4,6.3-48.3,6.3S116,192,101.8,188
	c-13.3-3.8-19.2-7.8-20.9-9.4v-48.7l66.3,23.6c0.9,0.3,1.9,0.5,2.9,0.5c1,0,2-0.2,2.9-0.5l66.3-23.6L219.3,178.5L219.3,178.5z"/>
</svg>
