<?xml version="1.0" encoding="utf-8"?>
<!-- Generator: Adobe Illustrator 24.2.1, SVG Export Plug-In . SVG Version: 6.00 Build 0)  -->
<svg version="1.1" id="Layer_1" xmlns="http://www.w3.org/2000/svg" xmlns:xlink="http://www.w3.org/1999/xlink" x="0px" y="0px"
	 viewBox="0 0 300 300" style="enable-background:new 0 0 300 300;" xml:space="preserve">
<style type="text/css">
	.st0{fill:#FEC118;}
</style>
<path class="st0" d="M186.6,146.9c-0.4-0.1-0.8-0.2-1.1-0.3c0.4-0.2,0.8-0.5,1.1-0.7c18.4-12,30.6-32.8,30.6-56.3
	c0-37-30.1-67.2-67.2-67.2c-37.1,0-67.2,30.2-67.2,67.2c0,23.5,12.2,44.3,30.6,56.3c0.4,0.3,0.8,0.5,1.1,0.7
	c-0.4,0.1-0.8,0.2-1.1,0.3C59,160.4,16.2,203.3,2.8,257.6h18.6c15.9-56,67.5-97.2,128.6-97.2c61.1,0,112.7,41.2,128.6,97.2h18.6
	C283.7,203.3,240.9,160.4,186.6,146.9z M100.8,89.6c0-27.1,22.1-49.2,49.2-49.2s49.2,22.1,49.2,49.2s-22.1,49.2-49.2,49.2
	S100.8,116.7,100.8,89.6z"/>
</svg>
