<?xml version="1.0" encoding="utf-8"?>
<!-- Generator: Adobe Illustrator 24.2.1, SVG Export Plug-In . SVG Version: 6.00 Build 0)  -->
<svg version="1.1" id="Layer_1" xmlns="http://www.w3.org/2000/svg" xmlns:xlink="http://www.w3.org/1999/xlink" x="0px" y="0px"
	 viewBox="0 0 300 300" style="enable-background:new 0 0 300 300;" xml:space="preserve">
<style type="text/css">
	.st0{fill:#FEC118;}
</style>
<g>
	<path class="st0" d="M241.7,7.7h-180c-13.8,0-25,11.2-25,25v20h-9.4c-4.6,0-8.3,3.7-8.3,8.3s3.7,8.3,8.3,8.3h9.4v27.8h-9.4
		c-4.6,0-8.3,3.7-8.3,8.3s3.7,8.3,8.3,8.3h9.4v27.8h-9.4c-4.6,0-8.3,3.7-8.3,8.3s3.7,8.3,8.3,8.3h9.4v27.8h-9.4
		c-4.6,0-8.3,3.7-8.3,8.3s3.7,8.3,8.3,8.3h9.4v27.8h-9.4c-4.6,0-8.3,3.7-8.3,8.3s3.7,8.3,8.3,8.3h9.4v20c0,13.8,11.2,25,25,25h180
		c13.8,0,25-11.2,25-25V32.7C266.7,19,255.5,7.7,241.7,7.7z M53.3,267.3v-20h9.4c4.6,0,8.3-3.7,8.3-8.3s-3.7-8.3-8.3-8.3h-9.4v-27.8
		h9.4c4.6,0,8.3-3.7,8.3-8.3s-3.7-8.3-8.3-8.3h-9.4v-27.8h9.4c4.6,0,8.3-3.7,8.3-8.3s-3.7-8.3-8.3-8.3h-9.4v-27.8h9.4
		c4.6,0,8.3-3.7,8.3-8.3s-3.7-8.3-8.3-8.3h-9.4V69.4h9.4c4.6,0,8.3-3.7,8.3-8.3s-3.7-8.3-8.3-8.3h-9.4v-20c0-4.6,3.7-8.3,8.3-8.3H90
		v251.2H61.7C57.1,275.6,53.3,271.9,53.3,267.3z M250.1,267.3c0,4.6-3.7,8.3-8.3,8.3h-135V24.4h135c4.6,0,8.3,3.7,8.3,8.3V267.3z"/>
	<path class="st0" d="M205.6,52.8h-54.5c-4.6,0-8.3,3.7-8.3,8.3v35.6c0,4.6,3.7,8.3,8.3,8.3h54.5c4.6,0,8.3-3.7,8.3-8.3V61.1
		C213.9,56.5,210.2,52.8,205.6,52.8z M197.3,88.3h-37.8V69.4h37.8V88.3z"/>
</g>
</svg>
